<mxfile host="app.diagrams.net" agent="Mozilla/5.0 (Windows NT 10.0; Win64; x64) AppleWebKit/537.36 (KHTML, like Gecko) Chrome/131.0.0.0 Safari/537.36 Edg/131.0.0.0" version="25.0.3">
  <diagram id="6a731a19-8d31-9384-78a2-239565b7b9f0" name="Page-1">
    <mxGraphModel dx="976" dy="1544" grid="0" gridSize="10" guides="1" tooltips="1" connect="1" arrows="1" fold="1" page="1" pageScale="1" pageWidth="1169" pageHeight="827" background="none" math="0" shadow="0">
      <root>
        <mxCell id="0" />
        <mxCell id="1" parent="0" />
        <mxCell id="Db1fxsP_OCef3VktjDg4-76" value="" style="rounded=0;whiteSpace=wrap;html=1;fillColor=#dae8fc;strokeColor=#6c8ebf;" vertex="1" parent="1">
          <mxGeometry x="375" y="100" width="860" height="369" as="geometry" />
        </mxCell>
        <mxCell id="Db1fxsP_OCef3VktjDg4-58" style="edgeStyle=orthogonalEdgeStyle;rounded=0;orthogonalLoop=1;jettySize=auto;html=1;exitX=0.5;exitY=1;exitDx=0;exitDy=0;" edge="1" parent="1" source="Db1fxsP_OCef3VktjDg4-55">
          <mxGeometry relative="1" as="geometry">
            <mxPoint x="482.5" y="250" as="targetPoint" />
          </mxGeometry>
        </mxCell>
        <mxCell id="Db1fxsP_OCef3VktjDg4-55" value="开始" style="rounded=1;whiteSpace=wrap;html=1;fillColor=#d5e8d4;strokeColor=#82b366;" vertex="1" parent="1">
          <mxGeometry x="437.5" y="170" width="90" height="50" as="geometry" />
        </mxCell>
        <mxCell id="Db1fxsP_OCef3VktjDg4-56" value="数据导入与异构数据融合" style="rounded=0;whiteSpace=wrap;html=1;fillColor=#f8cecc;strokeColor=#b85450;" vertex="1" parent="1">
          <mxGeometry x="400" y="250" width="165" height="60" as="geometry" />
        </mxCell>
        <mxCell id="Db1fxsP_OCef3VktjDg4-64" style="edgeStyle=orthogonalEdgeStyle;rounded=0;orthogonalLoop=1;jettySize=auto;html=1;exitX=0.5;exitY=1;exitDx=0;exitDy=0;" edge="1" parent="1">
          <mxGeometry relative="1" as="geometry">
            <mxPoint x="482.5" y="340" as="targetPoint" />
            <mxPoint x="482.5" y="310" as="sourcePoint" />
          </mxGeometry>
        </mxCell>
        <mxCell id="Db1fxsP_OCef3VktjDg4-65" value="大数据处理与流量评估" style="rounded=0;whiteSpace=wrap;html=1;fillColor=#f8cecc;strokeColor=#b85450;" vertex="1" parent="1">
          <mxGeometry x="400" y="340" width="165" height="60" as="geometry" />
        </mxCell>
        <mxCell id="Db1fxsP_OCef3VktjDg4-77" value="数据导入与初步处理" style="rounded=0;whiteSpace=wrap;html=1;strokeColor=#d79b00;fillColor=#ffe6cc;" vertex="1" parent="1">
          <mxGeometry x="375" y="100" width="215" height="52" as="geometry" />
        </mxCell>
        <mxCell id="Db1fxsP_OCef3VktjDg4-79" value="数据清洗与质量控制" style="rounded=0;whiteSpace=wrap;html=1;strokeColor=#d79b00;fillColor=#ffe6cc;" vertex="1" parent="1">
          <mxGeometry x="590" y="100" width="215" height="52" as="geometry" />
        </mxCell>
        <mxCell id="Db1fxsP_OCef3VktjDg4-80" value="数据存储与任务管理" style="rounded=0;whiteSpace=wrap;html=1;strokeColor=#d79b00;fillColor=#ffe6cc;" vertex="1" parent="1">
          <mxGeometry x="805" y="100" width="215" height="52" as="geometry" />
        </mxCell>
        <mxCell id="Db1fxsP_OCef3VktjDg4-81" value="数据可视化与报告" style="rounded=0;whiteSpace=wrap;html=1;strokeColor=#d79b00;fillColor=#ffe6cc;" vertex="1" parent="1">
          <mxGeometry x="1020" y="100" width="215" height="52" as="geometry" />
        </mxCell>
        <mxCell id="Db1fxsP_OCef3VktjDg4-82" value="数据清洗与质量管理" style="rounded=0;whiteSpace=wrap;html=1;fillColor=#f8cecc;strokeColor=#b85450;" vertex="1" parent="1">
          <mxGeometry x="628" y="220" width="165" height="60" as="geometry" />
        </mxCell>
        <mxCell id="Db1fxsP_OCef3VktjDg4-83" style="edgeStyle=orthogonalEdgeStyle;rounded=0;orthogonalLoop=1;jettySize=auto;html=1;exitX=0.5;exitY=1;exitDx=0;exitDy=0;" edge="1" parent="1">
          <mxGeometry relative="1" as="geometry">
            <mxPoint x="710.5" y="310" as="targetPoint" />
            <mxPoint x="710.5" y="280" as="sourcePoint" />
          </mxGeometry>
        </mxCell>
        <mxCell id="Db1fxsP_OCef3VktjDg4-84" value="清洗结果记录与审计" style="rounded=0;whiteSpace=wrap;html=1;fillColor=#f8cecc;strokeColor=#b85450;" vertex="1" parent="1">
          <mxGeometry x="628" y="310" width="165" height="60" as="geometry" />
        </mxCell>
        <mxCell id="Db1fxsP_OCef3VktjDg4-86" value="数据存储与区块链管理" style="rounded=0;whiteSpace=wrap;html=1;fillColor=#f8cecc;strokeColor=#b85450;" vertex="1" parent="1">
          <mxGeometry x="847" y="220" width="165" height="60" as="geometry" />
        </mxCell>
        <mxCell id="Db1fxsP_OCef3VktjDg4-87" style="edgeStyle=orthogonalEdgeStyle;rounded=0;orthogonalLoop=1;jettySize=auto;html=1;exitX=0.5;exitY=1;exitDx=0;exitDy=0;" edge="1" parent="1">
          <mxGeometry relative="1" as="geometry">
            <mxPoint x="929.5" y="310" as="targetPoint" />
            <mxPoint x="929.5" y="280" as="sourcePoint" />
          </mxGeometry>
        </mxCell>
        <mxCell id="Db1fxsP_OCef3VktjDg4-88" value="数据查询与任务调度" style="rounded=0;whiteSpace=wrap;html=1;fillColor=#f8cecc;strokeColor=#b85450;" vertex="1" parent="1">
          <mxGeometry x="847" y="310" width="165" height="60" as="geometry" />
        </mxCell>
        <mxCell id="Db1fxsP_OCef3VktjDg4-90" value="数据可视化与报告生成" style="rounded=0;whiteSpace=wrap;html=1;fillColor=#f8cecc;strokeColor=#b85450;" vertex="1" parent="1">
          <mxGeometry x="1057" y="220" width="165" height="60" as="geometry" />
        </mxCell>
        <mxCell id="Db1fxsP_OCef3VktjDg4-91" style="edgeStyle=orthogonalEdgeStyle;rounded=0;orthogonalLoop=1;jettySize=auto;html=1;exitX=0.5;exitY=1;exitDx=0;exitDy=0;" edge="1" parent="1">
          <mxGeometry relative="1" as="geometry">
            <mxPoint x="1139.5" y="310" as="targetPoint" />
            <mxPoint x="1139.5" y="280" as="sourcePoint" />
          </mxGeometry>
        </mxCell>
        <mxCell id="Db1fxsP_OCef3VktjDg4-94" value="结束" style="rounded=1;whiteSpace=wrap;html=1;fillColor=#d5e8d4;strokeColor=#82b366;" vertex="1" parent="1">
          <mxGeometry x="1098" y="310" width="90" height="50" as="geometry" />
        </mxCell>
        <mxCell id="Db1fxsP_OCef3VktjDg4-96" value="" style="endArrow=classic;html=1;rounded=0;exitX=0.5;exitY=1;exitDx=0;exitDy=0;entryX=0;entryY=0.5;entryDx=0;entryDy=0;" edge="1" parent="1" source="Db1fxsP_OCef3VktjDg4-65" target="Db1fxsP_OCef3VktjDg4-82">
          <mxGeometry width="50" height="50" relative="1" as="geometry">
            <mxPoint x="462" y="452" as="sourcePoint" />
            <mxPoint x="512" y="402" as="targetPoint" />
            <Array as="points">
              <mxPoint x="483" y="433" />
              <mxPoint x="590" y="433" />
              <mxPoint x="590" y="250" />
            </Array>
          </mxGeometry>
        </mxCell>
        <mxCell id="Db1fxsP_OCef3VktjDg4-97" value="" style="endArrow=classic;html=1;rounded=0;" edge="1" parent="1">
          <mxGeometry width="50" height="50" relative="1" as="geometry">
            <mxPoint x="714" y="376" as="sourcePoint" />
            <mxPoint x="844" y="250" as="targetPoint" />
            <Array as="points">
              <mxPoint x="714" y="384" />
              <mxPoint x="714" y="404" />
              <mxPoint x="714" y="424" />
              <mxPoint x="812" y="424" />
              <mxPoint x="812" y="250" />
            </Array>
          </mxGeometry>
        </mxCell>
        <mxCell id="Db1fxsP_OCef3VktjDg4-98" value="" style="endArrow=classic;html=1;rounded=0;" edge="1" parent="1">
          <mxGeometry width="50" height="50" relative="1" as="geometry">
            <mxPoint x="927" y="376" as="sourcePoint" />
            <mxPoint x="1057" y="250" as="targetPoint" />
            <Array as="points">
              <mxPoint x="927" y="384" />
              <mxPoint x="927" y="404" />
              <mxPoint x="927" y="424" />
              <mxPoint x="1025" y="424" />
              <mxPoint x="1025" y="250" />
            </Array>
          </mxGeometry>
        </mxCell>
      </root>
    </mxGraphModel>
  </diagram>
</mxfile>
